<svg height="320" version="1.1" width="320" xmlns="http://www.w3.org/2000/svg" xmlns:xlink="http://www.w3.org/1999/xlink" style="overflow: hidden; position: relative; left: -0.600037px; top: -0.399994px;" viewBox="0 0 320 320" preserveAspectRatio="xMidYMid meet" id="main_svg"><svg height="320" version="1.1" width="320" xmlns="http://www.w3.org/2000/svg" xmlns:xlink="http://www.w3.org/1999/xlink" style="overflow: hidden; position: relative; top: -0.0125122px;" viewBox="0 0 160 160" preserveAspectRatio="xMidYMid meet" id="imported_svg_layer_1"><path fill="#0c0c0e" stroke="none" d="M0,80A80,80,0,1,0,160,80A80,80,0,1,0,0,80" stroke-width="0" transform="matrix(1,0,0,1,0,0)" style="-webkit-tap-highlight-color: rgba(0, 0, 0, 0);"></path><desc style="-webkit-tap-highlight-color: rgba(0, 0, 0, 0);">Created with Logotizer</desc><defs style="-webkit-tap-highlight-color: rgba(0, 0, 0, 0);"></defs></svg><svg height="320" version="1.1" width="320" xmlns="http://www.w3.org/2000/svg" xmlns:xlink="http://www.w3.org/1999/xlink" style="overflow: hidden; position: relative; top: -0.0125122px;" viewBox="0 0 160 160" preserveAspectRatio="xMidYMid meet" id="imported_svg_layer_2"><desc style="-webkit-tap-highlight-color: rgba(0, 0, 0, 0);">Created with Logotizer</desc><defs style="-webkit-tap-highlight-color: rgba(0, 0, 0, 0);"></defs><path fill="#ffffff" stroke="#d5d5d5" d="M119.4201,90H158.77575000000002C158.79687,89.83075,158.82012,89.66223,158.8402,89.49261L79.4201,20L0,89.4926C0.0201,89.66223,0.04333,89.83075,0.06445,90H39.4201V149.27080999999998A79.92753,79.92753,0,0,0,119.42009999999999,149.27080999999998V90Z" stroke-width="2" transform="matrix(1,0,0,1,0,0)" style="-webkit-tap-highlight-color: rgba(0, 0, 0, 0); display: none; cursor: move;"></path></svg><desc style="-webkit-tap-highlight-color: rgba(0, 0, 0, 0);">Created with Logotizer</desc><defs style="-webkit-tap-highlight-color: rgba(0, 0, 0, 0);"></defs><path fill="#bb945f" stroke="none" d="M-60.36,0L-60.36,-165.12L64.92,-165.12L64.92,-146.84L-37.97,-146.84L-37.97,-93.87L57.89,-93.87L57.89,-75.82L-37.97,-75.82L-37.97,-18.28L69.72,-18.28L69.72,0L-60.36,0Z" transform="matrix(1,0,0,1,160,242.5586)" style="-webkit-tap-highlight-color: rgba(0, 0, 0, 0);"></path></svg>